<svg xmlns="http://www.w3.org/2000/svg" viewBox="0 0 24.61 191.25"><defs><style>.cls-1{fill:#4a7d97;}</style></defs><g id="Capa_2" data-name="Capa 2"><g id="Capa_2-2" data-name="Capa 2"><path class="cls-1" d="M24,188.25c.05.15.11.34.17.59a3.32,3.32,0,0,1,.09.8c0,1.08-.45,1.61-1.36,1.61H3.44a1.21,1.21,0,0,1-.89-.29,2,2,0,0,1-.5-.92,12.52,12.52,0,0,1-.47-2.61c-.1-1-.15-2.05-.15-3q0-4.62,1.85-6.87a6.4,6.4,0,0,1,5.25-2.25,6.82,6.82,0,0,1,4.25,1.3,7,7,0,0,1,2.45,3.93l2.35-1.83L19.79,177l1.89-1.46,1.32-1a1.75,1.75,0,0,1,1.35,1.65,1.76,1.76,0,0,1-.29,1,4.32,4.32,0,0,1-.92.84l-7.47,5.34v4.91Zm-10.84-4.17A6.86,6.86,0,0,0,12,179.83a4.09,4.09,0,0,0-3.48-1.54,4,4,0,0,0-3.46,1.61,7.85,7.85,0,0,0-1.15,4.61c0,.66,0,1.33.09,2s.14,1.26.24,1.78h8.93Z"/><path class="cls-1" d="M17.36,171.22c3.2-.66,4.79-2.75,4.79-6.29a7.3,7.3,0,0,0-.51-2.79,7.89,7.89,0,0,0-1.1-2,1.56,1.56,0,0,1,1.4-.88,1.41,1.41,0,0,1,1,.45,4.21,4.21,0,0,1,.85,1.25,8.76,8.76,0,0,1,.58,1.83,10.67,10.67,0,0,1,.22,2.25,9.46,9.46,0,0,1-2.31,6.72c-1.53,1.65-3.78,2.47-6.73,2.47a10.75,10.75,0,0,1-3.72-.6A7.83,7.83,0,0,1,9.05,172a7.18,7.18,0,0,1-1.74-2.58,8.48,8.48,0,0,1-.61-3.26,8.14,8.14,0,0,1,.55-3,7.07,7.07,0,0,1,3.94-4,7.78,7.78,0,0,1,3-.57,1.54,1.54,0,0,1,1.15.37,1.73,1.73,0,0,1,.42,1Zm-8.28-5.05a4.86,4.86,0,0,0,1.56,3.7,6.49,6.49,0,0,0,4.45,1.54L13.7,161.34a5.36,5.36,0,0,0-3.32,1.41A4.48,4.48,0,0,0,9.08,166.17Z"/><path class="cls-1" d="M21.31,142.59a1.82,1.82,0,0,1,1.14.31,3.59,3.59,0,0,1,.8,1,8.42,8.42,0,0,1,.9,2.09,10.5,10.5,0,0,1,.42,3.11,12.3,12.3,0,0,1-.51,3.63,7.43,7.43,0,0,1-1.59,2.83,6.93,6.93,0,0,1-2.75,1.83,11.13,11.13,0,0,1-4,.64,11,11,0,0,1-4.08-.66,7.55,7.55,0,0,1-2.8-1.77,6.77,6.77,0,0,1-1.62-2.64,10.09,10.09,0,0,1-.51-3.24,8.57,8.57,0,0,1,.3-2.27,8.1,8.1,0,0,1,.73-1.9H.37A3.77,3.77,0,0,1,.2,145a3.48,3.48,0,0,1-.09-.79c0-1,.44-1.57,1.32-1.57Zm-10.95,2.93a8.3,8.3,0,0,0-.88,1.68,6.23,6.23,0,0,0-.36,2.2,6.53,6.53,0,0,0,.35,2.14,4.62,4.62,0,0,0,1.13,1.78,5.65,5.65,0,0,0,2.07,1.22,9.19,9.19,0,0,0,3.11.46c2.25,0,3.87-.53,4.87-1.61a6,6,0,0,0,1.5-4.28,6.21,6.21,0,0,0-.95-3.59Z"/><path class="cls-1" d="M17.36,137.68c3.2-.66,4.79-2.76,4.79-6.3a7.28,7.28,0,0,0-.51-2.78,8.16,8.16,0,0,0-1.1-2,1.58,1.58,0,0,1,1.4-.88,1.42,1.42,0,0,1,1,.46,4.28,4.28,0,0,1,.85,1.24,9.06,9.06,0,0,1,.58,1.84,10.6,10.6,0,0,1,.22,2.25,9.46,9.46,0,0,1-2.31,6.72c-1.53,1.65-3.78,2.47-6.73,2.47a10.75,10.75,0,0,1-3.72-.6,8,8,0,0,1-2.76-1.69,7.18,7.18,0,0,1-1.74-2.58,8.52,8.52,0,0,1-.61-3.26,8.14,8.14,0,0,1,.55-3,7.11,7.11,0,0,1,1.56-2.4,7.21,7.21,0,0,1,2.38-1.57,7.78,7.78,0,0,1,3-.57,1.5,1.5,0,0,1,1.15.37,1.71,1.71,0,0,1,.42,1Zm-8.28-5.05a4.86,4.86,0,0,0,1.56,3.7,6.49,6.49,0,0,0,4.45,1.53L13.7,127.79a5.48,5.48,0,0,0-3.32,1.41A4.51,4.51,0,0,0,9.08,132.63Z"/><path class="cls-1" d="M19.59,111.35a4.37,4.37,0,0,1,3.66,1.72,8.09,8.09,0,0,1,1.32,5,12.8,12.8,0,0,1-.24,2.56,8.83,8.83,0,0,1-.62,2,4,4,0,0,1-.88,1.28,1.46,1.46,0,0,1-1,.46,1.71,1.71,0,0,1-.84-.23,2,2,0,0,1-.69-.72,11.51,11.51,0,0,0,1.3-2.31,7.47,7.47,0,0,0,.56-3q0-3.81-2.56-3.81c-1.39,0-2.29.85-2.71,2.53l-.8,3a6.6,6.6,0,0,1-1.71,3.26,4.08,4.08,0,0,1-2.87,1,4.58,4.58,0,0,1-1.83-.38,4.09,4.09,0,0,1-1.54-1.19,5.91,5.91,0,0,1-1-2,9,9,0,0,1-.39-2.8,9.7,9.7,0,0,1,.75-4.14c.5-1.05,1.08-1.57,1.74-1.57a1.48,1.48,0,0,1,.84.24,1.43,1.43,0,0,1,.55.64,11.76,11.76,0,0,0-.95,1.87,7.26,7.26,0,0,0-.51,2.85,4.86,4.86,0,0,0,.62,2.62,2,2,0,0,0,1.76,1,2,2,0,0,0,1.43-.55,3.64,3.64,0,0,0,.88-1.83l.62-2.53a7.91,7.91,0,0,1,1.85-3.73A4.44,4.44,0,0,1,19.59,111.35Z"/><path class="cls-1" d="M22.08,98.43A5.42,5.42,0,0,0,21,94.71a3.65,3.65,0,0,0-2.87-1.26,3.32,3.32,0,0,0-2.49,1,7.46,7.46,0,0,0-1.58,3l-.95,3.19A8.33,8.33,0,0,1,11,104.34a5,5,0,0,1-3.66,1.34,5.84,5.84,0,0,1-2.51-.53A5.23,5.23,0,0,1,3,103.63a7.13,7.13,0,0,1-1.19-2.37,10.49,10.49,0,0,1-.43-3.09,15.67,15.67,0,0,1,.24-2.73,9.78,9.78,0,0,1,.66-2.19,4.6,4.6,0,0,1,.94-1.45,1.5,1.5,0,0,1,1.06-.51,1.52,1.52,0,0,1,.88.25,1.94,1.94,0,0,1,.58.66,9.32,9.32,0,0,0-1.28,2.47,9.88,9.88,0,0,0-.55,3.39,5.57,5.57,0,0,0,.92,3.39,3,3,0,0,0,2.56,1.23,2.72,2.72,0,0,0,2.09-.88,7.53,7.53,0,0,0,1.39-2.93l.66-2.24a11.47,11.47,0,0,1,2.36-4.56,5.43,5.43,0,0,1,4.23-1.66,5.87,5.87,0,0,1,4.69,2.09,8.84,8.84,0,0,1,1.79,5.93,15,15,0,0,1-.29,3,10.28,10.28,0,0,1-.77,2.35,5.38,5.38,0,0,1-1,1.5,1.68,1.68,0,0,1-1.12.53,1.54,1.54,0,0,1-1.05-.38,2.23,2.23,0,0,1-.6-.9,8,8,0,0,0,.83-1,7.82,7.82,0,0,0,.76-1.35,8.36,8.36,0,0,0,.57-1.73A9,9,0,0,0,22.08,98.43Z"/><path class="cls-1" d="M15.64,72.83a11,11,0,0,1,3.7.59,8.12,8.12,0,0,1,2.81,1.66A7.18,7.18,0,0,1,24,77.7a9.88,9.88,0,0,1,0,6.89,7.3,7.3,0,0,1-1.8,2.63,8,8,0,0,1-2.81,1.69,11,11,0,0,1-3.7.58,10.76,10.76,0,0,1-3.7-.6,8.15,8.15,0,0,1-2.82-1.7,7.56,7.56,0,0,1-1.8-2.64,9.66,9.66,0,0,1,0-6.81,7.22,7.22,0,0,1,1.8-2.62,8.26,8.26,0,0,1,2.82-1.68A10.52,10.52,0,0,1,15.64,72.83ZM9.12,81.14a4.81,4.81,0,0,0,1.72,3.92,7.33,7.33,0,0,0,4.8,1.43,7.34,7.34,0,0,0,4.81-1.41,4.81,4.81,0,0,0,1.7-3.94,4.72,4.72,0,0,0-1.72-3.91,7.39,7.39,0,0,0-4.79-1.39,7.32,7.32,0,0,0-4.8,1.41A4.72,4.72,0,0,0,9.12,81.14Z"/><path class="cls-1" d="M9.15,63.2a6.24,6.24,0,0,0,.43,2.31,4.91,4.91,0,0,0,1.24,1.83,6,6,0,0,0,2,1.21,8.35,8.35,0,0,0,2.8.44,6.76,6.76,0,0,0,4.82-1.58,5.51,5.51,0,0,0,1.66-4.21,6.56,6.56,0,0,0-.42-2.56,9.28,9.28,0,0,0-1-1.83,2.11,2.11,0,0,1,.55-.66,1.23,1.23,0,0,1,.81-.26,1.37,1.37,0,0,1,.95.4,3.5,3.5,0,0,1,.77,1.12,7.72,7.72,0,0,1,.53,1.68A11.42,11.42,0,0,1,24,66.72a7.34,7.34,0,0,1-4.41,4.61,10.66,10.66,0,0,1-3.94.66,10,10,0,0,1-3.9-.7A8.27,8.27,0,0,1,9,69.43a7.8,7.8,0,0,1-1.7-2.77,10,10,0,0,1-.57-3.39,10.7,10.7,0,0,1,.2-2.1,6.8,6.8,0,0,1,.57-1.67,3.82,3.82,0,0,1,.82-1.08A1.49,1.49,0,0,1,9.23,58a1.23,1.23,0,0,1,.77.25,1.68,1.68,0,0,1,.51.66,10.22,10.22,0,0,0-.95,1.76A6.4,6.4,0,0,0,9.15,63.2Z"/><path class="cls-1" d="M1.83,56.54A1.77,1.77,0,0,1,.53,56,1.86,1.86,0,0,1,0,54.63a1.8,1.8,0,0,1,1.83-1.87,1.77,1.77,0,0,1,1.3.52,1.76,1.76,0,0,1,.53,1.35A1.82,1.82,0,0,1,3.13,56,1.75,1.75,0,0,1,1.83,56.54ZM24,53.17a3.73,3.73,0,0,1,.17.55,3.32,3.32,0,0,1,.09.8c0,1-.44,1.58-1.32,1.58H7.25a4.47,4.47,0,0,1-.16-.57A3.64,3.64,0,0,1,7,54.7q0-1.53,1.35-1.53Z"/><path class="cls-1" d="M6.7,44.2a8.15,8.15,0,0,1,1.43-5.06,5.31,5.31,0,0,1,4.5-1.87h8.68a2,2,0,0,1,1.23.32,3,3,0,0,1,.79.93,9.39,9.39,0,0,1,.89,2.33,12.69,12.69,0,0,1,.39,3.31,9,9,0,0,1-1.36,5.33,4.53,4.53,0,0,1-3.91,1.88,4.34,4.34,0,0,1-3.65-1.57,8.57,8.57,0,0,1-1.52-4.43l-.51-5.2h-1A3.13,3.13,0,0,0,10,41.27a4.75,4.75,0,0,0-.84,3,9.17,9.17,0,0,0,.44,2.9,15.48,15.48,0,0,0,1,2.41,3,3,0,0,1-.59.53,1.21,1.21,0,0,1-.73.24,1.33,1.33,0,0,1-.84-.25,2.53,2.53,0,0,1-.63-.81A8.9,8.9,0,0,1,7,47,12.84,12.84,0,0,1,6.7,44.2Zm15.49,0a8.74,8.74,0,0,0-.31-2.55,6.19,6.19,0,0,0-.6-1.44H16l.47,4.54a5.69,5.69,0,0,0,.86,2.82,2.33,2.33,0,0,0,2,.91,2.45,2.45,0,0,0,2.14-1.06A5.61,5.61,0,0,0,22.19,44.16Z"/><path class="cls-1" d="M24.19,32a3.4,3.4,0,0,1,.09.81c0,1-.44,1.57-1.32,1.57H.37a4,4,0,0,1-.17-.56A3.48,3.48,0,0,1,.11,33c0-1.05.44-1.58,1.32-1.58H24A4.73,4.73,0,0,1,24.19,32Z"/><path class="cls-1" d="M17.36,26.33c3.2-.66,4.79-2.76,4.79-6.3a7.21,7.21,0,0,0-.51-2.78,8.16,8.16,0,0,0-1.1-2,1.56,1.56,0,0,1,1.4-.88,1.38,1.38,0,0,1,1,.46,4.15,4.15,0,0,1,.85,1.24,9.16,9.16,0,0,1,.58,1.83,10.76,10.76,0,0,1,.22,2.26,9.46,9.46,0,0,1-2.31,6.72c-1.53,1.64-3.78,2.47-6.73,2.47a10.75,10.75,0,0,1-3.72-.61,7.81,7.81,0,0,1-2.76-1.68A7.18,7.18,0,0,1,7.31,24.5a8.56,8.56,0,0,1-.61-3.26,8.14,8.14,0,0,1,.55-3,7,7,0,0,1,1.56-2.4,7.23,7.23,0,0,1,2.38-1.58,8,8,0,0,1,3-.56,1.54,1.54,0,0,1,1.15.36,1.77,1.77,0,0,1,.42,1ZM9.08,21.27A4.86,4.86,0,0,0,10.64,25a6.49,6.49,0,0,0,4.45,1.54L13.7,16.44a5.36,5.36,0,0,0-3.32,1.41A4.51,4.51,0,0,0,9.08,21.27Z"/><path class="cls-1" d="M19.59,0a4.35,4.35,0,0,1,3.66,1.72,8.07,8.07,0,0,1,1.32,5,12.73,12.73,0,0,1-.24,2.56,8.92,8.92,0,0,1-.62,2,4.17,4.17,0,0,1-.88,1.28,1.46,1.46,0,0,1-1,.46,1.63,1.63,0,0,1-.84-.24,2,2,0,0,1-.69-.71,11.51,11.51,0,0,0,1.3-2.31,7.5,7.5,0,0,0,.56-3q0-3.81-2.56-3.81c-1.39,0-2.29.84-2.71,2.53l-.8,3a6.55,6.55,0,0,1-1.71,3.26,4,4,0,0,1-2.87,1,4.42,4.42,0,0,1-1.83-.39A4,4,0,0,1,8.13,11.2a5.86,5.86,0,0,1-1-2,9,9,0,0,1-.39-2.8,9.7,9.7,0,0,1,.75-4.14C8,1.22,8.53.7,9.19.7a1.47,1.47,0,0,1,1.39.87,11.76,11.76,0,0,0-.95,1.87A7.34,7.34,0,0,0,9.12,6.3a4.88,4.88,0,0,0,.62,2.62,2,2,0,0,0,1.76,1,2,2,0,0,0,1.43-.55,3.64,3.64,0,0,0,.88-1.83L14.43,5a8,8,0,0,1,1.85-3.74A4.43,4.43,0,0,1,19.59,0Z"/></g></g></svg>